<svg xmlns="http://www.w3.org/2000/svg" width="600" height="600" viewBox="0 0 600 600"><rect width="600" height="600" fill="white"/><g fill="black"><rect x="90" y="90" width="140" height="140"/><rect x="110" y="110" width="100" height="100" fill="white"/><rect x="130" y="130" width="60" height="60"/><rect x="370" y="90" width="140" height="140"/><rect x="390" y="110" width="100" height="100" fill="white"/><rect x="410" y="130" width="60" height="60"/><rect x="90" y="370" width="140" height="140"/><rect x="110" y="390" width="100" height="100" fill="white"/><rect x="130" y="410" width="60" height="60"/><rect x="270" y="90" width="20" height="20"/><rect x="290" y="90" width="20" height="20"/><rect x="310" y="90" width="20" height="20"/><rect x="350" y="90" width="20" height="20"/><rect x="310" y="110" width="20" height="20"/><rect x="330" y="110" width="20" height="20"/><rect x="250" y="130" width="20" height="20"/><rect x="350" y="130" width="20" height="20"/><rect x="230" y="150" width="20" height="20"/><rect x="270" y="150" width="20" height="20"/><rect x="310" y="150" width="20" height="20"/><rect x="330" y="150" width="20" height="20"/><rect x="230" y="170" width="20" height="20"/><rect x="310" y="170" width="20" height="20"/><rect x="230" y="190" width="20" height="20"/><rect x="250" y="190" width="20" height="20"/><rect x="310" y="190" width="20" height="20"/><rect x="330" y="190" width="20" height="20"/><rect x="250" y="210" width="20" height="20"/><rect x="270" y="210" width="20" height="20"/><rect x="290" y="210" width="20" height="20"/><rect x="310" y="210" width="20" height="20"/><rect x="90" y="230" width="20" height="20"/><rect x="150" y="230" width="20" height="20"/><rect x="210" y="230" width="20" height="20"/><rect x="230" y="230" width="20" height="20"/><rect x="250" y="230" width="20" height="20"/><rect x="270" y="230" width="20" height="20"/><rect x="310" y="230" width="20" height="20"/><rect x="330" y="230" width="20" height="20"/><rect x="350" y="230" width="20" height="20"/><rect x="370" y="230" width="20" height="20"/><rect x="430" y="230" width="20" height="20"/><rect x="470" y="230" width="20" height="20"/><rect x="490" y="230" width="20" height="20"/><rect x="110" y="250" width="20" height="20"/><rect x="130" y="250" width="20" height="20"/><rect x="190" y="250" width="20" height="20"/><rect x="250" y="250" width="20" height="20"/><rect x="270" y="250" width="20" height="20"/><rect x="290" y="250" width="20" height="20"/><rect x="430" y="250" width="20" height="20"/><rect x="490" y="250" width="20" height="20"/><rect x="110" y="270" width="20" height="20"/><rect x="130" y="270" width="20" height="20"/><rect x="150" y="270" width="20" height="20"/><rect x="210" y="270" width="20" height="20"/><rect x="250" y="270" width="20" height="20"/><rect x="270" y="270" width="20" height="20"/><rect x="390" y="270" width="20" height="20"/><rect x="450" y="270" width="20" height="20"/><rect x="270" y="290" width="20" height="20"/><rect x="290" y="290" width="20" height="20"/><rect x="310" y="290" width="20" height="20"/><rect x="370" y="290" width="20" height="20"/><rect x="410" y="290" width="20" height="20"/><rect x="90" y="310" width="20" height="20"/><rect x="110" y="310" width="20" height="20"/><rect x="230" y="310" width="20" height="20"/><rect x="250" y="310" width="20" height="20"/><rect x="270" y="310" width="20" height="20"/><rect x="290" y="310" width="20" height="20"/><rect x="330" y="310" width="20" height="20"/><rect x="370" y="310" width="20" height="20"/><rect x="410" y="310" width="20" height="20"/><rect x="450" y="310" width="20" height="20"/><rect x="490" y="310" width="20" height="20"/><rect x="110" y="330" width="20" height="20"/><rect x="150" y="330" width="20" height="20"/><rect x="170" y="330" width="20" height="20"/><rect x="310" y="330" width="20" height="20"/><rect x="370" y="330" width="20" height="20"/><rect x="390" y="330" width="20" height="20"/><rect x="430" y="330" width="20" height="20"/><rect x="450" y="330" width="20" height="20"/><rect x="90" y="350" width="20" height="20"/><rect x="190" y="350" width="20" height="20"/><rect x="210" y="350" width="20" height="20"/><rect x="370" y="350" width="20" height="20"/><rect x="430" y="350" width="20" height="20"/><rect x="470" y="350" width="20" height="20"/><rect x="490" y="350" width="20" height="20"/><rect x="250" y="370" width="20" height="20"/><rect x="270" y="370" width="20" height="20"/><rect x="310" y="370" width="20" height="20"/><rect x="350" y="370" width="20" height="20"/><rect x="370" y="370" width="20" height="20"/><rect x="410" y="370" width="20" height="20"/><rect x="430" y="370" width="20" height="20"/><rect x="450" y="370" width="20" height="20"/><rect x="490" y="370" width="20" height="20"/><rect x="230" y="390" width="20" height="20"/><rect x="370" y="390" width="20" height="20"/><rect x="490" y="390" width="20" height="20"/><rect x="230" y="410" width="20" height="20"/><rect x="250" y="410" width="20" height="20"/><rect x="310" y="410" width="20" height="20"/><rect x="330" y="410" width="20" height="20"/><rect x="350" y="410" width="20" height="20"/><rect x="430" y="410" width="20" height="20"/><rect x="490" y="410" width="20" height="20"/><rect x="290" y="430" width="20" height="20"/><rect x="310" y="430" width="20" height="20"/><rect x="330" y="430" width="20" height="20"/><rect x="410" y="430" width="20" height="20"/><rect x="430" y="430" width="20" height="20"/><rect x="450" y="430" width="20" height="20"/><rect x="470" y="430" width="20" height="20"/><rect x="290" y="450" width="20" height="20"/><rect x="330" y="450" width="20" height="20"/><rect x="370" y="450" width="20" height="20"/><rect x="410" y="450" width="20" height="20"/><rect x="430" y="450" width="20" height="20"/><rect x="490" y="450" width="20" height="20"/><rect x="410" y="470" width="20" height="20"/><rect x="430" y="470" width="20" height="20"/><rect x="230" y="490" width="20" height="20"/><rect x="270" y="490" width="20" height="20"/><rect x="350" y="490" width="20" height="20"/><rect x="390" y="490" width="20" height="20"/><rect x="470" y="490" width="20" height="20"/></g><text x="300" y="555" text-anchor="middle" font-family="Arial" font-size="20">UPI • ₹100 PRE-BOOKING</text></svg>